<svg id="Layer_1" data-name="Layer 1" xmlns="http://www.w3.org/2000/svg" xmlns:xlink="http://www.w3.org/1999/xlink" viewBox="0 0 600.5 1100"><defs><style>.cls-1{fill:url(#linear-gradient);}.cls-2{fill:#7a24b0;}.cls-3,.cls-5,.cls-6,.cls-7{fill:none;stroke:#994dc1;}.cls-3,.cls-5,.cls-7{stroke-linecap:round;}.cls-3,.cls-6{stroke-miterlimit:10;}.cls-3,.cls-7{stroke-width:4px;}.cls-4{fill:#994dc1;}.cls-5,.cls-7{stroke-linejoin:round;}.cls-5,.cls-6{stroke-width:5px;}</style><linearGradient id="linear-gradient" x1="300.5" y1="1100" x2="300.5" gradientUnits="userSpaceOnUse"><stop offset="0" stop-color="#6b21ad"/><stop offset="1" stop-color="#842ab2"/></linearGradient></defs><rect class="cls-1" x="0.5" width="600" height="1100"/><polygon class="cls-2" points="283.5 0.5 0 609.5 0.97 0.5 283.5 0.5"/><polygon class="cls-2" points="600.5 365 600.5 1100 274.5 1100 600.5 365"/><polygon class="cls-3" points="307.09 281.46 291.58 286.34 286.71 270.82 274.54 274.65 279.42 290.16 263.9 295.03 267.73 307.2 283.24 302.32 288.11 317.83 300.28 314.01 295.4 298.5 310.92 293.63 307.09 281.46"/><polygon class="cls-3" points="114.09 913.46 98.58 918.34 93.71 902.82 81.54 906.65 86.42 922.16 70.9 927.03 74.73 939.2 90.24 934.32 95.11 949.84 107.28 946.01 102.4 930.5 117.92 925.63 114.09 913.46"/><polygon class="cls-3" points="551.59 86.47 538.5 90.58 534.39 77.5 524.13 80.72 528.24 93.81 515.15 97.92 518.38 108.18 531.47 104.07 535.58 117.16 545.84 113.93 541.73 100.84 554.82 96.73 551.59 86.47"/><polygon class="cls-4" points="169.09 372.91 160.08 387.93 145.06 378.93 138 390.71 153.02 399.71 144.02 414.74 155.8 421.8 164.81 406.77 179.83 415.77 186.89 403.99 171.87 394.99 180.87 379.97 169.09 372.91"/><circle class="cls-5" cx="159.88" cy="999.67" r="19.62"/><circle class="cls-4" cx="310.27" cy="825.6" r="17.2"/><circle class="cls-4" cx="54.27" cy="656.6" r="17.2"/><circle class="cls-4" cx="20.54" cy="1054.6" r="17.2"/><circle class="cls-4" cx="578.54" cy="306.28" r="17.2"/><path class="cls-4" d="M461.31,316.75a54.28,54.28,0,0,1-70.38-31.93l102.63-39.11A55.54,55.54,0,0,1,461.31,316.75Z" transform="translate(0.5)"/><path class="cls-6" d="M439.69,200.51a54.29,54.29,0,0,1,70.38,31.93L407.44,271.55A55.55,55.55,0,0,1,439.69,200.51Z" transform="translate(0.5)"/><polygon class="cls-4" points="302.3 179.46 338.5 84.08 382.38 184 302.3 179.46"/><polygon class="cls-7" points="153.56 799.96 189.59 723.04 219.75 808.75 153.56 799.96"/><path class="cls-7" d="M189.09,723.05c-.32,1.63-5,62.74-5,62.74l35.18,23Z" transform="translate(0.5)"/><polygon class="cls-7" points="153.56 799.96 184.57 785.79 189.59 723.04 153.56 799.96"/></svg>