<?xml version="1.0" encoding="utf-8"?>
<!-- Generator: Adobe Illustrator 24.2.3, SVG Export Plug-In . SVG Version: 6.00 Build 0)  -->
<svg version="1.1" id="Layer_1" xmlns="http://www.w3.org/2000/svg" xmlns:xlink="http://www.w3.org/1999/xlink" x="0px" y="0px"
	 viewBox="0 0 128 128" style="enable-background:new 0 0 128 128;" xml:space="preserve">
<style type="text/css">
	.st0{display:none;fill:url(#SVGID_1_);}
	.st1{fill:url(#SVGID_2_);}
	.st2{fill:#FFFFFF;}
</style>
<linearGradient id="SVGID_1_" gradientUnits="userSpaceOnUse" x1="64" y1="-9.094947e-13" x2="64" y2="128" gradientTransform="matrix(1 0 0 -1 0 128)">
	<stop  offset="0" style="stop-color:#6B21AD"/>
	<stop  offset="1" style="stop-color:#842AB2"/>
</linearGradient>
<rect class="st0" width="128" height="128"/>
<linearGradient id="SVGID_2_" gradientUnits="userSpaceOnUse" x1="64" y1="0" x2="64" y2="128">
	<stop  offset="0" style="stop-color:#6B21AD"/>
	<stop  offset="1" style="stop-color:#842AB2"/>
</linearGradient>
<circle class="st1" cx="64" cy="64" r="64"/>
<g id="Layer_3">
	<polygon points="48.4,63.4 46.5,63.5 44.5,63.6 47,45.9 68,44.4 69.5,41.5 72,36.6 72.6,35.3 73.7,33.3 36.5,36 31,75.2 31,75.3 
		26.9,105.3 28.8,105.2 38.9,104.5 43.1,74.4 53.1,73.6 53.4,73.1 55.5,69 55.7,68.7 57.8,64.5 57.9,64.2 58.7,62.6 56.6,62.7 
		56.5,62.7 52.5,63 50.5,63.2 	"/>
</g>
<polygon class="st2" points="41.9,56.4 39.9,56.6 37.9,56.6 40.4,38.9 61.4,37.4 62.8,34.6 65.4,29.6 66.1,28.3 67,26.4 29.9,29 
	24.5,68.3 24.5,68.3 20.3,98.4 22.3,98.2 32.2,97.5 36.4,67.4 46.5,66.7 46.8,66.1 48.9,62 49.1,61.7 51.1,57.6 51.4,57.3 
	52.2,55.6 50,55.8 49.9,55.8 45.8,56.1 43.9,56.2 "/>
<path d="M72.8,100.9l0.4,0.2c2.2,0.7,4.5,0.9,6.8,0.7c2.5-0.2,4.8-0.8,7.1-1.7l0.5-0.2c6.8-3,11.8-9.5,12.7-16.3l3.3-23.8l0.5-3.4
	l-13.2,10L87.2,69l-2.1,14.8l2.2-1.7l1.5-1.2l-0.5,3.4v0.1c-0.4,2.1-1.7,4-3.7,5l0,0c-0.3,0.2-0.7,0.3-1,0.4c-0.6,0.2-1.3,0.4-2,0.4
	h-0.1c-0.6,0-1.2,0-1.7-0.2c-0.3-0.1-0.7-0.2-1-0.3c-0.1-0.1-0.2-0.1-0.3-0.2c-0.2-0.2-0.5-0.3-0.7-0.5c-1.1-0.9-1.7-2.5-1.4-3.9
	l5.3-37.9c0.2-1.4,0.9-2.8,2-3.8c1.3-1.3,2.9-2.1,4.7-2.3c1.6-0.2,3.2,0.5,4.2,1.7c0.2,0.2,0.4,0.6,0.6,0.9c0.2,0.4,0.3,0.8,0.4,1.2
	c0.1,0.5,0.1,1,0,1.5v0.2l-0.3,2.3l-0.3,2.5l2.2-1.7l10.5-7.9c-0.2-2.5-1.1-4.7-2.6-6.7c-0.4-0.5-0.7-0.9-1.2-1.3
	c-1.5-1.4-3.4-2.5-5.4-3.2c-2.1-0.7-4.3-0.9-6.5-0.8c-2.4,0.2-4.7,0.8-6.8,1.7c-2.3,1-4.5,2.4-6.4,4.1c-4,3.4-6.5,8-7.1,12.6
	l-5.2,38c-0.6,4.3,0.5,8.2,2.9,11c0.4,0.5,0.9,0.9,1.4,1.3C69.9,99.6,71.4,100.4,72.8,100.9z"/>
<g id="Layer_2_1_">
	<path class="st2" d="M66.2,94.4l0.4,0.2c2.2,0.7,4.5,0.9,6.8,0.7c2.5-0.2,4.8-0.8,7.1-1.7l0.5-0.2c6.8-3,11.8-9.5,12.7-16.3
		l3.3-23.8l0.5-3.4l-13.2,10l-3.7,2.8l-2.1,14.8l2.2-1.7l1.5-1.2l-0.5,3.4V78c-0.4,2.1-1.7,4-3.7,5l0,0c-0.3,0.2-0.7,0.3-1,0.4
		c-0.6,0.2-1.3,0.4-2,0.4H75c-0.6,0-1.2,0-1.7-0.2c-0.3-0.1-0.7-0.2-1-0.3c-0.1-0.1-0.2-0.1-0.3-0.2c-0.2-0.2-0.5-0.3-0.7-0.5
		c-1.1-0.9-1.7-2.5-1.4-4l5.3-37.9c0.2-1.4,0.9-2.8,2-3.8c1.3-1.3,2.9-2.1,4.7-2.3c1.6-0.2,3.2,0.5,4.2,1.7c0.2,0.2,0.4,0.6,0.6,0.9
		c0.2,0.4,0.3,0.8,0.4,1.2c0.1,0.5,0.1,1,0,1.5V40l-0.2,2.5L86.3,45l2.2-1.7L99,35.4c-0.2-2.5-1.1-4.7-2.6-6.7
		c-0.4-0.5-0.7-0.9-1.2-1.3c-1.5-1.4-3.4-2.5-5.4-3.2c-2.1-0.7-4.3-0.9-6.5-0.8c-2.4,0.2-4.7,0.8-6.8,1.7c-2.3,1-4.5,2.4-6.4,4.1
		c-4,3.4-6.5,8-7.1,12.6l-5.3,37.8c-0.6,4.3,0.5,8.2,2.9,11c0.4,0.5,0.9,0.9,1.4,1.3C63.4,93.1,64.7,93.9,66.2,94.4z"/>
</g>
</svg>
