<?xml version="1.0" encoding="utf-8"?>
<!-- Generator: Adobe Illustrator 24.2.3, SVG Export Plug-In . SVG Version: 6.00 Build 0)  -->
<svg version="1.1" id="Layer_1" xmlns="http://www.w3.org/2000/svg" xmlns:xlink="http://www.w3.org/1999/xlink" x="0px" y="0px"
	 viewBox="0 0 560 802" style="enable-background:new 0 0 560 802;" xml:space="preserve">
<style type="text/css">
	.st0{fill:#FFFFFF;}
	.st1{fill:#725CCF;}
	.st2{fill:#E78861;}
	.st3{fill:#FC4242;}
	.st4{fill:#9BDED0;}
	.st5{fill:#F8C22A;}
	.st6{fill:#EC4C82;}
	.st7{fill:none;stroke:#FFAF00;stroke-width:10;stroke-linecap:round;stroke-linejoin:round;}
	.st8{fill:#4389F2;}
</style>
<rect class="st0" width="560" height="802"/>
<path class="st1" d="M467.8,163.8L377.2,44.2c-3.3-5.1-1.8-11.9,3.4-15.2c4.5-2.9,10.5-2.1,14.1,1.9l90.6,119.5
	c3.3,5.1,1.8,11.9-3.4,15.2C477.4,168.6,471.4,167.8,467.8,163.8L467.8,163.8z"/>
<path class="st2" d="M146.7,727.5l-37.8-50l-0.1-0.1c-1.5-2.1-1.1-4.9,1.1-6.4c2.1-1.5,4.9-1.1,6.4,1.1l37.8,50
	c1.6,2,1.3,4.9-0.5,6.5c-2,1.6-4.9,1.3-6.5-0.5C146.8,727.8,146.8,727.7,146.7,727.5z"/>
<path class="st3" d="M237,802l-17.8-23.5c-1.2-1.5-3.4-1.7-4.9-0.6c-1.5,1.2-1.7,3.2-0.7,4.7l14.6,19.3L237,802L237,802z"/>
<path class="st4" d="M50,688.1l-11.8-15.6c-0.5-0.6-0.4-1.5,0.3-2s1.5-0.4,2,0.3l0,0l11.8,15.6c0.5,0.6,0.3,1.5-0.3,2
	C51.4,688.9,50.5,688.8,50,688.1L50,688.1z"/>
<path class="st2" d="M408.8,0L460,67.6c6.5,8.1,18.3,9.5,26.5,3c7.9-6.3,9.4-17.6,3.5-25.8L456.1,0H408.8z"/>
<path class="st2" d="M356.8,70l-28.7-37.8c-0.1-0.1-0.2-0.2-0.2-0.3c-1.1-1.6-0.6-3.8,1-4.8s3.7-0.6,4.8,0.9l28.6,37.8l0,0
	c1.1,1.5,0.9,3.7-0.7,4.8C360.1,71.8,357.9,71.5,356.8,70z"/>
<path class="st5" d="M338.8,97.8l-14.2-18.7c-0.5-0.8-0.3-1.9,0.5-2.4c0.7-0.5,1.7-0.3,2.3,0.3l14.2,18.7c0.6,0.7,0.4,1.8-0.3,2.4
	C340.5,98.7,339.4,98.6,338.8,97.8L338.8,97.8z"/>
<path class="st6" d="M538.8,123.9l21.2,27.9v-36.3l-3.7-4.9c-4-4.5-11-5-15.5-0.9C536.7,113.4,535.9,119.4,538.8,123.9z"/>
<circle class="st7" cx="113.6" cy="801.1" r="13"/>
<circle class="st7" cx="526.1" cy="238.6" r="13"/>
<path class="st8" d="M29.4,774.8l-180.4-238c-6.5-10.2-3.5-23.7,6.7-30.2c9-5.8,20.9-4.1,28.1,3.9l180.4,238
	c6.5,10.2,3.5,23.7-6.7,30.2C48.4,784.4,36.5,782.8,29.4,774.8L29.4,774.8z"/>
<path class="st2" d="M1.4,632.8l-78-103c-0.4-0.4-0.7-0.8-1-1.3c-2.8-4.4-1.5-10.3,3-13.1c4.4-2.8,10.3-1.5,13.1,3l78.1,103
	c2.8,4.4,1.6,10.3-2.8,13.1C9.7,637,4.5,636.3,1.4,632.8z"/>
<circle class="st7" cx="67.6" cy="603.7" r="13"/>
</svg>
