<?xml version="1.0" encoding="utf-8"?>
<!-- Generator: Adobe Illustrator 24.2.3, SVG Export Plug-In . SVG Version: 6.00 Build 0)  -->
<svg version="1.1" id="Bold" xmlns="http://www.w3.org/2000/svg" xmlns:xlink="http://www.w3.org/1999/xlink" x="0px" y="0px"
	 viewBox="0 0 512 512" style="enable-background:new 0 0 512 512;" xml:space="preserve">
<style type="text/css">
	.st0{fill:#FCFCFC;}
</style>
<g>
	<path class="st0" d="M42.7,309.3H240V512H80c-20.5,0-37.3-16.9-37.3-37.3V309.3z"/>
</g>
<g>
	<path class="st0" d="M469.3,309.3v165.3c0,20.5-16.9,37.3-37.3,37.3H272V309.3H469.3z"/>
</g>
<g>
	<path class="st0" d="M0,186.7V240c0,20.5,16.9,37.3,37.3,37.3h5.3H240v-32v-96H37.3C16.9,149.3,0,166.2,0,186.7z"/>
</g>
<g>
	<path class="st0" d="M474.7,149.3H272v96v32h197.3h5.3c20.5,0,37.3-16.9,37.3-37.3v-53.3C512,166.2,495.1,149.3,474.7,149.3z"/>
</g>
<g>
	<path class="st0" d="M256,171.6c-4.7,0-9.1-2-12.1-5.5c-3.1-3.5-4.4-8.2-3.7-12.8C248.1,99.9,289.7-1,391-1
		c57.8,0,78.3,31.3,78.3,58C469.3,104.6,403.1,171.6,256,171.6L256,171.6z M391,31.1c-76.4,0-105.4,72.6-115.1,108.1
		c60.3-2.8,98.3-18.1,120.2-31.1c30.4-18,41.2-38.2,41.2-51.1C437.3,37.9,413.4,31.1,391,31.1z"/>
</g>
<g>
	<path class="st0" d="M256,171.6c-147.1,0-213.3-67-213.3-114.6c0-26.8,20.5-58,78.3-58C222.3-0.9,264,99.9,271.9,153.3
		c0.7,4.6-0.7,9.3-3.7,12.8C265.1,169.6,260.7,171.6,256,171.6L256,171.6z M121,31.1c-22.4,0-46.3,6.8-46.3,26
		c0,27.2,47.6,76.9,161.3,82.1C226.4,103.7,197.4,31.1,121,31.1L121,31.1z"/>
</g>
</svg>
