<svg xmlns="http://www.w3.org/2000/svg" viewBox="0 0 479.56 396.3"><defs><style>.cls-1{fill:#fff;}</style></defs><g id="Layer_3" data-name="Layer 3"><polygon points="66.04 107.81 61.4 108.15 56.76 108.48 62.54 66.94 111.78 63.4 115.14 56.78 121.11 45.06 122.61 42.11 124.96 37.48 38.01 43.73 25.21 135.72 25.2 135.84 15.41 206.23 20.04 205.9 43.45 204.21 53.26 133.7 76.89 132 77.53 130.73 82.5 120.97 82.9 120.19 87.72 110.71 88.17 109.82 90.07 106.08 85 106.45 84.81 106.46 75.32 107.14 70.68 107.48 66.04 107.81"/><path d="M222.94,257.54l-16-63.6,2.12-1.6,8.16-6.13a69.66,69.66,0,0,0,22.25-41.93c.29-2.09.47-4.14.56-6.15a52,52,0,0,0-2.13-17.56l-.3-.94a30.54,30.54,0,0,0-5-9.31c-6.75-8.5-17.9-13-30.6-12.14l-43.39,3.13L136,263.8l4.64-.33,23.4-1.69L169.55,222l13.71-10.3,1.52,6,1.52,6,1.52,6,1.52,6,5.93,23.61,2.91-.2Zm-48.58-70.06,8.76-63,13.2-1c5.63-.4,10.47,2,12.91,6.25a10.32,10.32,0,0,1,.67,1.28l0,.11c.18.45.3,1,.46,1.44a24.33,24.33,0,0,1,.88,3.51,30.22,30.22,0,0,1,.42,4.14,35.36,35.36,0,0,1-.28,6,38.89,38.89,0,0,1-5.75,15.62,31.74,31.74,0,0,1-4.17,5.16l-1.11.83-3.92,2.94-1.61,1.22-5.13,3.85-5.13,3.85-5.12,3.85-2.78,2.09Z" transform="translate(-25.45 -64.49)"/><polygon points="293.14 185.98 291.34 178.81 288.97 169.37 288.08 165.83 286.98 161.45 256.29 163.66 251.66 163.99 247.02 164.33 242.38 164.66 237.74 164.99 244.04 119.71 272.08 117.69 274.96 96.97 275.59 92.47 266.1 93.15 261.46 93.48 256.82 93.82 252.19 94.15 247.55 94.49 253.32 52.95 302.56 49.4 305.93 42.79 311.89 31.06 313.39 28.11 315.75 23.48 228.79 29.74 216 121.73 215.98 121.84 206.19 192.24 210.83 191.9 293.14 185.98"/><polygon points="388.34 178.81 386.53 171.63 384.16 162.19 383.27 158.66 382.17 154.28 351.48 156.49 346.85 156.82 342.21 157.15 337.57 157.49 332.93 157.82 339.23 112.54 367.27 110.52 370.15 89.8 370.78 85.29 361.29 85.98 356.65 86.31 352.01 86.64 347.38 86.98 342.74 87.31 348.51 45.77 397.75 42.23 401.12 35.61 407.08 23.89 408.58 20.94 410.94 16.31 323.98 22.57 311.19 114.55 311.17 114.67 301.38 185.06 306.02 184.73 388.34 178.81"/><path d="M83.71,458.59l1,.32a42.31,42.31,0,0,0,15.88,1.75,52.57,52.57,0,0,0,16.69-4.09l1.08-.47c15.92-7.1,27.6-22.28,29.81-38.12l7.76-55.79,1.11-8-31,23.3L117.27,384l-4.8,34.56,5.12-3.85L121.2,412l-1.11,8,0,.26a16.17,16.17,0,0,1-8.7,11.71l0,0a20.64,20.64,0,0,1-2.44,1,17.39,17.39,0,0,1-4.62,1h-.11a14.72,14.72,0,0,1-4.13-.31,13.52,13.52,0,0,1-2.39-.73c-.27-.12-.5-.26-.75-.39a9,9,0,0,1-1.66-1.09A10,10,0,0,1,92,422.33l12.38-89a15.21,15.21,0,0,1,4.7-8.83,18.62,18.62,0,0,1,11.16-5.37,12,12,0,0,1,9.87,3.85,8.59,8.59,0,0,1,1.36,2,9.87,9.87,0,0,1,.88,2.82,11.55,11.55,0,0,1,.07,3.48l0,.33-.74,5.28-.83,6,5.12-3.86,24.71-18.56a30.34,30.34,0,0,0-6.12-15.71,28.46,28.46,0,0,0-2.74-3.08,33.74,33.74,0,0,0-12.61-7.58,39,39,0,0,0-15.21-1.8,49,49,0,0,0-16,4.05,59.2,59.2,0,0,0-15,9.56c-9.17,8-15.13,18.72-16.63,29.53L64,424.06c-1.39,10,1.16,19.18,6.81,25.83a29,29,0,0,0,3.31,3.24A29.59,29.59,0,0,0,83.71,458.59Z" transform="translate(-25.45 -64.49)"/><path d="M236.08,448.47l17.41-125.19c1.3-9.33-.78-18.13-5.92-24.75a28.58,28.58,0,0,0-2.8-3.14,33.52,33.52,0,0,0-12.54-7.51,38.84,38.84,0,0,0-15.21-1.8,48.72,48.72,0,0,0-16,4.05,59,59,0,0,0-14.9,9.48c-9.24,8-15.22,18.83-16.73,29.72L152,454.53l4.64-.34L180,452.51l5.52-39.74,31-23.3-1.12,8-1.12,8-1.11,8-1.12,8-4,28.92,4.64-.33ZM197.44,327.06a15.28,15.28,0,0,1,4.71-8.84,18.55,18.55,0,0,1,11.15-5.36,11.94,11.94,0,0,1,9.87,3.85,8.33,8.33,0,0,1,1.36,2,9.93,9.93,0,0,1,.88,2.83,11.88,11.88,0,0,1,.08,3.48l-.05.33-.73,5.28-3.38,24.26-10.49,7.88-5.13,3.85-5.12,3.86-5.13,3.85-5.13,3.85Z" transform="translate(-25.45 -64.49)"/><path d="M386.08,437l17.41-125.16c1.3-9.33-.79-18.12-5.92-24.74a28.58,28.58,0,0,0-2.8-3.14,33.69,33.69,0,0,0-12.53-7.51,39.05,39.05,0,0,0-15.21-1.8,49,49,0,0,0-16,4.05,58.39,58.39,0,0,0-13.48,8.3,33.63,33.63,0,0,0-11.37-6.46,38.79,38.79,0,0,0-15.2-1.8,48.72,48.72,0,0,0-16,4,58.8,58.8,0,0,0-14.89,9.48c-9.25,8-15.22,18.82-16.74,29.71l-17.4,125.15,4.64-.33,23.39-1.68L291.38,319.7a15.28,15.28,0,0,1,4.71-8.84,18.61,18.61,0,0,1,11.14-5.36,11.94,11.94,0,0,1,9.87,3.85,8.88,8.88,0,0,1,1.37,2,10,10,0,0,1,.87,2.83,11.88,11.88,0,0,1,.08,3.48l0,.16v0l0,.13-.73,5.29L302,443h0v0l4.64-.33,23.4-1.69,17.41-125.15v-.05l0-.26a15.15,15.15,0,0,1,4.7-8.83,18.62,18.62,0,0,1,11.15-5.37,11.94,11.94,0,0,1,9.86,3.86,8.67,8.67,0,0,1,1.37,2,9.61,9.61,0,0,1,.87,2.83,11.53,11.53,0,0,1,.08,3.48l-.05.33-.73,5.28L358.05,439l4.64-.33Z" transform="translate(-25.45 -64.49)"/><polygon points="456.96 364.46 455.16 357.29 452.79 347.85 451.9 344.31 450.8 339.93 420.11 342.14 415.47 342.47 410.83 342.81 406.19 343.14 401.56 343.47 407.86 298.19 435.9 296.17 438.78 275.45 439.41 270.95 429.92 271.63 425.28 271.96 420.64 272.3 416 272.63 411.36 272.96 417.14 231.43 466.38 227.88 469.74 221.27 475.71 209.54 477.21 206.59 479.56 201.96 392.61 208.22 379.81 300.21 379.8 300.32 370.01 370.71 374.64 370.38 456.96 364.46"/></g><g id="Layer_2" data-name="Layer 2"><polygon class="cls-1" points="50.63 91.5 45.99 91.84 41.36 92.17 47.13 50.63 96.37 47.09 99.74 40.47 105.7 28.75 107.2 25.8 109.56 21.17 22.6 27.42 9.81 119.41 9.79 119.53 0 189.92 4.64 189.59 28.04 187.9 37.85 117.39 61.48 115.69 62.13 114.42 67.09 104.66 67.49 103.87 72.31 94.4 72.77 93.51 74.66 89.77 69.6 90.14 69.4 90.15 59.91 90.83 55.27 91.17 50.63 91.5"/><path class="cls-1" d="M207.53,241.23l-16-63.6,2.13-1.6,8.15-6.13A69.61,69.61,0,0,0,224.07,128q.44-3.14.56-6.15a52,52,0,0,0-2.13-17.56c-.09-.32-.19-.63-.3-.94a30.33,30.33,0,0,0-5-9.31c-6.75-8.5-17.89-13.05-30.59-12.14L143.18,85l-22.6,162.49,4.63-.33,23.41-1.69,5.53-39.74,13.7-10.3,1.52,6,1.52,6,1.52,6,1.52,6.05,5.94,23.61,2.91-.2ZM159,171.17l8.76-63,13.2-1c5.63-.4,10.48,2,12.92,6.25a11.83,11.83,0,0,1,.66,1.28.37.37,0,0,1,0,.11c.19.45.31,1,.46,1.44a24.33,24.33,0,0,1,.88,3.51,30.22,30.22,0,0,1,.42,4.14,35.32,35.32,0,0,1-.27,6,38.91,38.91,0,0,1-5.76,15.62,30.72,30.72,0,0,1-4.17,5.16l-1.1.83-3.92,2.94-1.62,1.22-5.12,3.85-5.13,3.85-5.13,3.85-2.77,2.09Z" transform="translate(-25.45 -64.49)"/><polygon class="cls-1" points="277.74 169.67 275.94 162.5 273.56 153.06 272.68 149.52 271.57 145.14 240.89 147.35 236.25 147.68 231.61 148.02 226.97 148.35 222.34 148.68 228.63 103.4 256.68 101.38 259.56 80.66 260.18 76.16 250.69 76.84 246.06 77.17 241.42 77.51 236.78 77.84 232.14 78.18 237.92 36.64 287.16 33.09 290.52 26.48 296.49 14.75 297.99 11.8 300.34 7.17 213.38 13.43 200.59 105.42 200.57 105.53 190.78 175.93 195.42 175.59 277.74 169.67"/><polygon class="cls-1" points="372.93 162.5 371.13 155.32 368.75 145.88 367.87 142.35 366.76 137.97 336.08 140.18 331.44 140.51 326.8 140.84 322.16 141.18 317.52 141.51 323.82 96.23 351.87 94.21 354.75 73.49 355.37 68.98 345.88 69.67 341.25 70 336.61 70.33 331.97 70.67 327.33 71 333.11 29.46 382.35 25.92 385.71 19.3 391.68 7.58 393.18 4.63 395.53 0 308.57 6.26 295.78 98.24 295.76 98.36 285.98 168.75 290.61 168.42 372.93 162.5"/><path class="cls-1" d="M68.3,443.28l1,.32a42.26,42.26,0,0,0,15.87,1.75,52.51,52.51,0,0,0,16.69-4.09l1.09-.47c15.92-7.1,27.6-22.28,29.8-38.12l7.76-55.79,1.12-8-31,23.3-8.73,6.56-4.81,34.56,5.13-3.85,3.61-2.71-1.12,8,0,.26a16.16,16.16,0,0,1-8.71,11.71l0,0a20.5,20.5,0,0,1-2.43,1,17.46,17.46,0,0,1-4.63,1h-.1a15.18,15.18,0,0,1-4.14-.31,13.78,13.78,0,0,1-2.39-.73c-.26-.12-.5-.26-.75-.39a9.33,9.33,0,0,1-1.66-1.09A10,10,0,0,1,76.6,407L89,318a15.15,15.15,0,0,1,4.7-8.83,18.57,18.57,0,0,1,11.15-5.37,12,12,0,0,1,9.87,3.85,8.94,8.94,0,0,1,1.37,2,9.55,9.55,0,0,1,.87,2.82A11.55,11.55,0,0,1,117,316l0,.33-.73,5.28-.84,6,5.13-3.86,24.7-18.56a30.34,30.34,0,0,0-6.12-15.71,28.36,28.36,0,0,0-2.73-3.08,33.7,33.7,0,0,0-12.62-7.58,39,39,0,0,0-15.2-1.8,49,49,0,0,0-16,4.05,59.2,59.2,0,0,0-15,9.56c-9.17,8-15.12,18.72-16.63,29.53L48.6,408.75c-1.39,10,1.16,19.18,6.81,25.83a28.25,28.25,0,0,0,3.32,3.24A29.64,29.64,0,0,0,68.3,443.28Z" transform="translate(-25.45 -64.49)"/><path class="cls-1" d="M220.68,433.16,238.09,308c1.3-9.33-.79-18.13-5.93-24.75a28.48,28.48,0,0,0-2.79-3.14,33.6,33.6,0,0,0-12.54-7.51,38.86,38.86,0,0,0-15.21-1.8,48.72,48.72,0,0,0-16,4.05,58.68,58.68,0,0,0-14.9,9.48c-9.25,8-15.23,18.83-16.74,29.72l-17.41,125.2,4.64-.34,23.4-1.68,5.53-39.74,31-23.3-1.12,8-1.11,8-1.12,8-1.11,8-4,28.92,4.64-.33ZM182,311.75a15.2,15.2,0,0,1,4.7-8.84,18.58,18.58,0,0,1,11.15-5.36,11.94,11.94,0,0,1,9.87,3.85,8.67,8.67,0,0,1,1.37,2,9.61,9.61,0,0,1,.87,2.83,11.55,11.55,0,0,1,.08,3.48l0,.33-.74,5.28-3.37,24.26-10.49,7.88-5.13,3.85-5.13,3.86L180.05,359l-5.12,3.85Z" transform="translate(-25.45 -64.49)"/><path class="cls-1" d="M370.68,421.68l17.4-125.16c1.3-9.33-.78-18.12-5.92-24.74a27.58,27.58,0,0,0-2.8-3.14,33.61,33.61,0,0,0-12.53-7.51,39,39,0,0,0-15.2-1.8,49,49,0,0,0-16,4.05,58.18,58.18,0,0,0-13.48,8.3,33.72,33.72,0,0,0-11.37-6.46,38.86,38.86,0,0,0-15.21-1.8,48.72,48.72,0,0,0-16,4.05A58.8,58.8,0,0,0,264.64,277c-9.24,8-15.22,18.82-16.73,29.71L230.5,431.81l4.64-.33,23.4-1.68L276,304.39a15.2,15.2,0,0,1,4.7-8.84,18.61,18.61,0,0,1,11.15-5.36,11.9,11.9,0,0,1,9.86,3.85,8.88,8.88,0,0,1,1.37,2,9.61,9.61,0,0,1,.87,2.83,11.55,11.55,0,0,1,.08,3.48l0,.16v0l0,.13-.73,5.29L286.58,427.73h0v0l4.64-.33,23.39-1.69L332,300.61v-.05l0-.26a15.22,15.22,0,0,1,4.71-8.83,18.63,18.63,0,0,1,11.14-5.37,12,12,0,0,1,9.87,3.86,8.33,8.33,0,0,1,1.36,2,9.93,9.93,0,0,1,.88,2.83,11.54,11.54,0,0,1,.07,3.48l0,.33-.74,5.28L342.64,423.69l4.64-.33Z" transform="translate(-25.45 -64.49)"/><polygon class="cls-1" points="441.56 349.15 439.75 341.98 437.38 332.54 436.49 329 435.39 324.62 404.7 326.83 400.07 327.16 395.43 327.5 390.79 327.83 386.15 328.16 392.45 282.88 420.49 280.86 423.37 260.14 424 255.64 414.51 256.32 409.87 256.65 405.23 256.99 400.6 257.32 395.96 257.65 401.74 216.12 450.97 212.57 454.34 205.96 460.3 194.23 461.8 191.28 464.16 186.65 377.2 192.91 364.41 284.9 364.39 285.01 354.6 355.4 359.24 355.07 441.56 349.15"/><rect x="389.84" y="69.59" width="62.13" height="3.01" rx="1.5" transform="translate(-29.52 -33.56) rotate(-4.19)"/><rect x="48.91" y="290.79" width="62.13" height="3.01" rx="1.5" transform="matrix(1, -0.07, 0.07, 1, -46.58, -57.87)"/><rect x="194.91" y="421.79" width="62.13" height="3.01" rx="1.5" transform="translate(-55.75 -46.86) rotate(-4.19)"/></g></svg>