<?xml version="1.0" encoding="utf-8"?>
<!-- Generator: Adobe Illustrator 24.2.3, SVG Export Plug-In . SVG Version: 6.00 Build 0)  -->
<svg version="1.1" id="Layer_1" xmlns="http://www.w3.org/2000/svg" xmlns:xlink="http://www.w3.org/1999/xlink" x="0px" y="0px"
	 viewBox="0 0 479.6 212" style="enable-background:new 0 0 479.6 212;" xml:space="preserve">
<style type="text/css">
	.st0{fill:#FFFFFF;}
</style>
<g id="Layer_3">
	<polygon points="67,111.8 62.4,112.2 57.8,112.5 63.5,70.9 112.8,67.4 116.1,60.8 122.1,49.1 123.6,46.1 126,41.5 39,47.7 
		26.2,139.7 26.2,139.8 16.4,210.2 21,209.9 44.5,208.2 54.3,137.7 77.9,136 78.5,134.7 83.5,125 83.9,124.2 88.7,114.7 89.2,113.8 
		91.1,110.1 86,110.4 85.8,110.5 76.3,111.1 71.7,111.5 	"/>
	<path d="M198.5,197.1l-16-63.6l2.1-1.6l8.2-6.1c12.1-10.9,20-25.8,22.2-41.9c0.3-2.1,0.5-4.1,0.6-6.1c0.3-5.9-0.4-11.9-2.1-17.6
		l-0.3-0.9c-1.1-3.4-2.8-6.5-5-9.3c-6.8-8.5-17.9-13-30.6-12.1l-43.4,3.1l-22.6,162.5l4.6-0.3l23.4-1.7l5.5-39.8l13.7-10.3l1.5,6
		l1.5,6l1.5,6l1.5,6l5.9,23.6l2.9-0.2L198.5,197.1z M149.9,127l8.8-63l13.2-1c5.6-0.4,10.5,2,12.9,6.2c0.3,0.4,0.5,0.8,0.7,1.3v0.1
		c0.2,0.4,0.3,1,0.5,1.4c0.4,1.1,0.7,2.3,0.9,3.5c0.2,1.4,0.4,2.8,0.4,4.1c0.1,2,0,4-0.3,6c-0.8,5.6-2.7,10.9-5.8,15.6
		c-1.2,1.9-2.6,3.6-4.2,5.2l-1.1,0.8l-3.9,2.9l-1.6,1.2l-5.1,3.9l-5.1,3.9L155,123l-2.8,2.1L149.9,127z"/>
	<polygon points="294.1,190 292.3,182.8 290,173.4 289.1,169.8 288,165.4 257.3,167.7 252.7,168 248,168.3 243.4,168.7 238.7,169 
		245,123.7 273.1,121.7 276,101 276.6,96.5 267.1,97.2 262.5,97.5 257.8,97.8 253.2,98.2 248.6,98.5 254.3,57 303.6,53.4 
		306.9,46.8 312.9,35.1 314.4,32.1 316.8,27.5 229.8,33.7 217,125.7 217,125.8 207.2,196.2 211.8,195.9 	"/>
	<polygon points="389.3,182.8 387.5,175.6 385.2,166.2 384.3,162.7 383.2,158.3 352.5,160.5 347.9,160.8 343.2,161.1 338.6,161.5 
		333.9,161.8 340.2,116.5 368.3,114.5 371.1,93.8 371.8,89.3 362.3,90 357.6,90.3 353,90.6 348.4,91 343.7,91.3 349.5,49.8 
		398.8,46.2 402.1,39.6 408.1,27.9 409.6,24.9 411.9,20.3 325,26.6 312.2,118.6 312.2,118.7 302.4,189.1 307,188.7 	"/>
</g>
<g id="Layer_2_1_">
	<polygon class="st0" points="51.6,95.5 47,95.8 42.4,96.2 48.1,54.6 97.4,51.1 100.7,44.5 106.7,32.8 108.2,29.8 110.6,25.2 
		23.6,31.4 10.8,123.4 10.8,123.5 1,193.9 5.6,193.6 29,191.9 38.8,121.4 62.5,119.7 63.1,118.4 68.1,108.7 68.5,107.9 73.3,98.4 
		73.8,97.5 75.7,93.8 70.6,94.1 70.4,94.2 60.9,94.8 56.3,95.2 	"/>
	<path class="st0" d="M183.1,180.7l-16-63.6l2.1-1.6l8.1-6.1c12.1-10.9,20-25.8,22.3-41.9c0.3-2.1,0.5-4.1,0.6-6.2
		c0.3-5.9-0.4-11.9-2.1-17.6c-0.1-0.3-0.2-0.6-0.3-0.9c-1.1-3.4-2.8-6.5-5-9.3c-6.8-8.5-17.9-13.1-30.6-12.1l-43.4,3.1L96.1,187
		l4.6-0.3l23.4-1.7l5.5-39.7l13.7-10.3l1.5,6l1.5,6l1.5,6l1.5,6l5.9,23.6l2.9-0.2L183.1,180.7z M134.6,110.7l8.8-63l13.2-1
		c5.6-0.4,10.5,2,12.9,6.2c0.2,0.4,0.5,0.8,0.7,1.3c0,0,0,0.1,0,0.1c0.2,0.4,0.3,1,0.5,1.4c0.4,1.1,0.7,2.3,0.9,3.5
		c0.2,1.4,0.4,2.8,0.4,4.1c0.1,2,0,4-0.3,6c-0.8,5.6-2.7,10.9-5.8,15.6c-1.2,1.9-2.6,3.6-4.2,5.2l-1.1,0.8l-3.9,2.9l-1.6,1.2
		l-5.1,3.9l-5.1,3.9l-5.1,3.9l-2.8,2.1L134.6,110.7z"/>
	<polygon class="st0" points="278.7,173.7 276.9,166.5 274.6,157.1 273.7,153.5 272.6,149.1 241.9,151.4 237.2,151.7 232.6,152 
		228,152.4 223.3,152.7 229.6,107.4 257.7,105.4 260.6,84.7 261.2,80.2 251.7,80.8 247.1,81.2 242.4,81.5 237.8,81.8 233.1,82.2 
		238.9,40.6 288.2,37.1 291.5,30.5 297.5,18.8 299,15.8 301.3,11.2 214.4,17.4 201.6,109.4 201.6,109.5 191.8,179.9 196.4,179.6 	
		"/>
	<polygon class="st0" points="373.9,166.5 372.1,159.3 369.8,149.9 368.9,146.4 367.8,142 337.1,144.2 332.4,144.5 327.8,144.8 
		323.2,145.2 318.5,145.5 324.8,100.2 352.9,98.2 355.8,77.5 356.4,73 346.9,73.7 342.2,74 337.6,74.3 333,74.7 328.3,75 
		334.1,33.5 383.4,29.9 386.7,23.3 392.7,11.6 394.2,8.6 396.5,4 309.6,10.3 296.8,102.2 296.8,102.4 287,172.8 291.6,172.4 	"/>
	<path d="M366.9,11.3l59-4.3c0.8-0.1,1.5,0.6,1.6,1.4l0,0c0.1,0.8-0.6,1.5-1.4,1.6l-59,4.3c-0.8,0.1-1.5-0.6-1.6-1.4l0,0
		C365.4,12,366,11.3,366.9,11.3z"/>
</g>
</svg>
