<?xml version="1.0" encoding="utf-8"?>
<!-- Generator: Adobe Illustrator 24.2.3, SVG Export Plug-In . SVG Version: 6.00 Build 0)  -->
<svg version="1.1" id="Layer_1" xmlns="http://www.w3.org/2000/svg" xmlns:xlink="http://www.w3.org/1999/xlink" x="0px" y="0px"
	 viewBox="0 0 479.6 209.6" style="enable-background:new 0 0 479.6 209.6;" xml:space="preserve">
<style type="text/css">
	.st0{fill:#FFFFFF;}
</style>
<g id="Layer_3">
	<path d="M58.3,207.5l1,0.3c5.1,1.6,10.5,2.2,15.9,1.8c5.8-0.4,11.4-1.8,16.7-4.1l1.1-0.5c15.9-7.1,27.6-22.3,29.8-38.1l7.8-55.8
		l1.1-8l-31,23.3l-8.8,6.5L87,167.4l5.1-3.9l3.6-2.7l-1.1,8v0.3c-0.9,5.1-4.1,9.4-8.7,11.7l0,0c-0.8,0.4-1.6,0.7-2.4,1
		c-1.5,0.5-3,0.9-4.6,1h-0.1c-1.4,0.1-2.8,0-4.1-0.3c-0.8-0.2-1.6-0.4-2.4-0.7c-0.3-0.1-0.5-0.3-0.8-0.4c-0.6-0.3-1.1-0.7-1.7-1.1
		c-2.6-2.3-3.8-5.7-3.3-9.1l12.4-89c0.5-3.4,2.2-6.5,4.7-8.8c3-3,6.9-4.9,11.2-5.4c3.7-0.3,7.4,1.1,9.9,3.9c0.5,0.6,1,1.3,1.4,2
		c0.4,0.9,0.7,1.8,0.9,2.8c0.2,1.1,0.2,2.3,0.1,3.5v0.3l-0.7,5.3l-0.8,6l5.1-3.9l24.7-18.6c-0.5-5.7-2.6-11.2-6.1-15.7
		c-0.8-1.1-1.8-2.1-2.7-3.1c-3.6-3.4-7.9-6-12.6-7.6c-4.9-1.6-10.1-2.2-15.2-1.8c-5.5,0.4-10.9,1.8-16,4c-5.5,2.4-10.5,5.6-15,9.6
		c-9.2,8-15.1,18.7-16.6,29.5l-12.4,88.6c-1.4,10,1.2,19.2,6.8,25.8c1,1.2,2.1,2.2,3.3,3.2C51.5,204.4,54.7,206.2,58.3,207.5z"/>
	<path d="M210.6,197.3L228,72.1c1.3-9.3-0.8-18.1-5.9-24.8c-0.9-1.1-1.8-2.2-2.8-3.1c-3.6-3.4-7.9-6-12.5-7.5
		c-4.9-1.6-10.1-2.2-15.2-1.8c-5.5,0.4-10.9,1.8-16,4c-5.4,2.4-10.4,5.6-14.9,9.5c-9.2,8-15.2,18.8-16.7,29.7l-17.4,125.2l4.6-0.3
		l23.4-1.7l5.5-39.7l31-23.3l-1.1,8l-1.1,8l-1.1,8l-1.1,8l-4,28.9l4.6-0.3L210.6,197.3z M172,75.9c0.5-3.4,2.2-6.5,4.7-8.8
		c3-3,6.9-4.9,11.1-5.4c3.7-0.3,7.4,1.1,9.9,3.9c0.5,0.6,1,1.3,1.4,2c0.4,0.9,0.7,1.8,0.9,2.8c0.2,1.1,0.2,2.3,0.1,3.5l-0.1,0.3
		l-0.7,5.3l-3.4,24.3l-10.5,7.9l-5.1,3.9l-5.1,3.9l-5.1,3.9l-5.1,3.9L172,75.9z"/>
	<path d="M360.6,185.9L378,60.7c1.3-9.3-0.8-18.1-5.9-24.7c-0.9-1.1-1.8-2.2-2.8-3.1c-3.6-3.4-7.9-6-12.5-7.5
		c-4.9-1.6-10.1-2.2-15.2-1.8c-5.5,0.4-10.9,1.8-16,4c-4.8,2.1-9.4,4.9-13.5,8.3c-3.3-2.9-7.2-5.1-11.4-6.5
		c-4.9-1.6-10.1-2.2-15.2-1.8c-5.5,0.4-10.9,1.8-16,4c-5.4,2.4-10.4,5.6-14.9,9.5c-9.2,8-15.2,18.8-16.7,29.7l-17.4,125.2l4.6-0.3
		l23.4-1.7l17.4-125.4c0.5-3.4,2.2-6.5,4.7-8.8c3-3,6.9-4.9,11.1-5.4c3.7-0.3,7.4,1.1,9.9,3.9c0.5,0.6,1,1.3,1.4,2
		c0.4,0.9,0.7,1.8,0.9,2.8c0.2,1.1,0.2,2.3,0.1,3.5v0.2l0,0v0.1l-0.7,5.3l-16.7,119.8l0,0l0,0l4.6-0.3l23.4-1.7L322,64.7v0v-0.3
		c0.5-3.4,2.2-6.5,4.7-8.8c3-3,6.9-4.9,11.1-5.4c3.7-0.3,7.4,1.1,9.9,3.9c0.5,0.6,1,1.3,1.4,2c0.4,0.9,0.7,1.8,0.9,2.8
		c0.2,1.1,0.2,2.3,0.1,3.5l0,0.3l-0.7,5.3l-16.6,119.9l4.6-0.3L360.6,185.9z"/>
	<polygon points="457,177.8 455.2,170.6 452.8,161.2 451.9,157.7 450.8,153.3 420.1,155.5 415.5,155.8 410.8,156.2 406.2,156.5 
		401.6,156.8 407.9,111.5 435.9,109.5 438.8,88.8 439.4,84.3 429.9,85 425.3,85.3 420.6,85.6 416,86 411.4,86.3 417.1,44.8 
		466.4,41.2 469.7,34.6 475.7,22.9 477.2,19.9 479.6,15.3 392.6,21.6 379.8,113.6 379.8,113.7 370,184.1 374.6,183.7 	"/>
</g>
<g id="Layer_2_1_">
	<path class="st0" d="M42.9,192.1l1,0.3c5.1,1.6,10.5,2.2,15.9,1.8c5.8-0.4,11.4-1.8,16.7-4.1l1.1-0.5c15.9-7.1,27.6-22.3,29.8-38.1
		l7.8-55.8l1.1-8l-31,23.3l-8.7,6.6l-4.8,34.6l5.1-3.9l3.6-2.7l-1.1,8v0.3c-0.9,5.1-4.1,9.4-8.7,11.7l0,0c-0.8,0.4-1.6,0.7-2.4,1
		c-1.5,0.5-3,0.9-4.6,1h-0.1c-1.4,0.1-2.8,0-4.1-0.3c-0.8-0.2-1.6-0.4-2.4-0.7c-0.3-0.1-0.5-0.3-0.8-0.4c-0.6-0.3-1.1-0.7-1.7-1.1
		c-2.6-2.3-3.9-5.8-3.3-9.2l12.4-89c0.5-3.4,2.2-6.5,4.7-8.8c3-3,6.9-4.9,11.1-5.4c3.7-0.3,7.4,1.1,9.9,3.9c0.5,0.6,1,1.3,1.4,2
		c0.4,0.9,0.7,1.8,0.9,2.8c0.2,1.2,0.2,2.4,0,3.5v0.3l-0.7,5.3l-0.8,6l5.1-3.9l24.7-18.6c-0.5-5.7-2.6-11.2-6.1-15.7
		c-0.8-1.1-1.7-2.1-2.7-3.1c-3.6-3.4-7.9-6-12.6-7.6c-4.9-1.6-10.1-2.2-15.2-1.8c-5.5,0.4-10.9,1.8-16,4c-5.5,2.4-10.5,5.6-15,9.6
		C43,47.5,37,58.2,35.5,69l-12.4,88.6c-1.4,10,1.2,19.2,6.8,25.8c1,1.2,2.1,2.3,3.3,3.2C36.1,189.1,39.3,190.9,42.9,192.1z"/>
	<path class="st0" d="M195.2,182l17.4-125.2c1.3-9.3-0.8-18.1-5.9-24.8c-0.9-1.1-1.8-2.2-2.8-3.1c-3.6-3.4-7.9-6-12.5-7.5
		c-4.9-1.6-10.1-2.2-15.2-1.8c-5.5,0.4-10.9,1.8-16,4c-5.4,2.4-10.4,5.6-14.9,9.5c-9.2,8-15.2,18.8-16.7,29.7l-17.4,125.2l4.6-0.3
		l23.4-1.7l5.5-39.7l31-23.3l-1.1,8l-1.1,8l-1.1,8l-1.1,8l-4,28.9l4.6-0.3L195.2,182z M156.6,60.6c0.5-3.4,2.2-6.5,4.7-8.8
		c3-3,6.9-4.9,11.1-5.4c3.7-0.3,7.4,1.1,9.9,3.9c0.5,0.6,1,1.3,1.4,2c0.4,0.9,0.7,1.8,0.9,2.8c0.2,1.1,0.2,2.3,0.1,3.5v0.3l-0.7,5.3
		l-3.4,24.3L170,96.3l-5.1,3.9l-5.1,3.9l-5.1,3.8l-5.1,3.9L156.6,60.6z"/>
	<path class="st0" d="M345.2,170.5l17.4-125.2c1.3-9.3-0.8-18.1-5.9-24.7c-0.9-1.1-1.8-2.2-2.8-3.1c-3.6-3.4-7.9-6-12.5-7.5
		c-4.9-1.6-10.1-2.2-15.2-1.8c-5.5,0.4-10.9,1.8-16,4c-4.9,2.1-9.4,4.9-13.5,8.3c-3.3-2.9-7.2-5.1-11.4-6.5
		c-4.9-1.6-10.1-2.2-15.2-1.8c-5.5,0.4-10.9,1.8-16,4c-5.4,2.4-10.5,5.6-14.9,9.5c-9.2,8-15.2,18.8-16.7,29.7l-17.4,125.1l4.6-0.3
		l23.4-1.7l17.5-125.4c0.5-3.4,2.2-6.5,4.7-8.8c3-3,6.9-4.9,11.1-5.4c3.7-0.3,7.4,1.1,9.9,3.9c0.5,0.6,1,1.3,1.4,2
		c0.4,0.9,0.7,1.8,0.9,2.8c0.2,1.1,0.2,2.3,0.1,3.5v0.2l0,0v0.1l-0.7,5.3l-16.7,119.8l0,0l0,0l4.6-0.3l23.4-1.7l17.4-125.1v0v-0.3
		c0.5-3.4,2.2-6.5,4.7-8.8c3-3,6.9-4.9,11.1-5.4c3.7-0.3,7.4,1.1,9.9,3.9c0.5,0.6,1,1.3,1.4,2c0.4,0.9,0.7,1.8,0.9,2.8
		c0.2,1.1,0.2,2.3,0.1,3.5v0.3l-0.7,5.3l-16.6,119.8l4.6-0.3L345.2,170.5z"/>
	<polygon class="st0" points="441.6,162.5 439.8,155.3 437.4,145.9 436.5,142.4 435.4,138 404.7,140.2 400.1,140.5 395.4,140.9 
		390.8,141.2 386.1,141.5 392.5,96.2 420.5,94.2 423.4,73.5 424,69 414.5,69.7 409.9,70 405.2,70.3 400.6,70.7 396,71 401.7,29.5 
		451,25.9 454.3,19.3 460.3,7.6 461.8,4.6 464.2,0 377.2,6.3 364.4,98.2 364.4,98.4 354.6,168.8 359.2,168.4 	"/>
	<path d="M24.2,42.7l59.1-4.1c0.8-0.1,1.5,0.6,1.6,1.4l0,0c0.1,0.8-0.6,1.5-1.4,1.6l-59.1,4.1c-0.8,0.1-1.5-0.6-1.6-1.4l0,0
		C22.7,43.5,23.4,42.8,24.2,42.7z"/>
	<path d="M171,172.8l59-4.3c0.8-0.1,1.5,0.6,1.6,1.4l0,0c0.1,0.8-0.6,1.5-1.4,1.6l-59,4.3c-0.8,0.1-1.5-0.6-1.6-1.4l0,0
		C169.5,173.6,170.1,172.9,171,172.8z"/>
</g>
</svg>
