<?xml version="1.0" encoding="utf-8"?>
<!-- Generator: Adobe Illustrator 24.2.3, SVG Export Plug-In . SVG Version: 6.00 Build 0)  -->
<svg version="1.1" id="Layer_1" xmlns="http://www.w3.org/2000/svg" xmlns:xlink="http://www.w3.org/1999/xlink" x="0px" y="0px"
	 viewBox="0 0 560 802" style="enable-background:new 0 0 560 802;" xml:space="preserve">
<style type="text/css">
	.st0{fill:#FFFFFF;}
	.st1{fill:#725CCF;}
	.st2{fill:#4389F2;}
	.st3{fill:#E78861;}
	.st4{fill:#FC4242;}
	.st5{fill:#9BDED0;}
	.st6{fill:#FE4342;}
	.st7{fill:#F8C22A;}
	.st8{fill:#EC4C82;}
	.st9{fill:#FBC424;}
	.st10{fill:none;stroke:#FFAF00;stroke-width:10;stroke-linecap:round;stroke-linejoin:round;}
</style>
<rect class="st0" width="560" height="802"/>
<path class="st1" d="M83.4,168.1c-6.1,0-11-5-10.9-11.1c0-2.3,0.8-4.6,2.2-6.5L165.3,31c4.1-4.5,11-4.9,15.5-0.8
	c4,3.6,4.8,9.6,1.9,14.1L92.2,163.8C90.1,166.5,86.9,168.1,83.4,168.1z"/>
<path class="st2" d="M410.9,768.7c-6.1,0-11-5-10.9-11.1c0-2.3,0.8-4.6,2.2-6.5l90.6-119.5c3.2-5.1,10-6.7,15.2-3.4
	c5.1,3.2,6.7,10,3.4,15.2c-0.3,0.5-0.7,1-1.1,1.5l-90.6,119.5C417.6,767.1,414.3,768.7,410.9,768.7z"/>
<path class="st3" d="M357.4,697.7c-1.9,0-3.5-1.6-3.5-3.5c0-0.8,0.2-1.5,0.7-2.1l28.6-37.8c1.1-1.6,3.3-1.9,4.8-0.8
	c1.6,1.1,1.9,3.3,0.8,4.8c0,0-0.1,0.1-0.1,0.1l-28.6,37.8C359.5,697.2,358.5,697.7,357.4,697.7z"/>
<path class="st4" d="M343.6,802l14.6-19.3c1.1-1.6,0.8-3.7-0.8-4.8c-1.5-1.1-3.6-0.8-4.7,0.7L335,802H343.6z"/>
<path class="st5" d="M520.8,688.7c-0.3,0-0.6-0.1-0.9-0.3c-0.6-0.5-0.8-1.4-0.3-2l11.8-15.6c0.5-0.6,1.4-0.8,2-0.3s0.8,1.4,0.3,2
	l-11.8,15.6C521.6,688.5,521.2,688.7,520.8,688.7z"/>
<path class="st6" d="M103.9,0l-34,44.8c-6.1,8.4-4.2,20.2,4.2,26.3c8.2,5.9,19.5,4.3,25.8-3.5L151.2,0H103.9z"/>
<path class="st3" d="M200.5,71.4c-0.8,0-1.5-0.2-2.1-0.7c-1.5-1.1-1.8-3.3-0.7-4.8c0,0,0,0,0,0l28.6-37.8c1.1-1.6,3.2-2,4.8-0.9
	c1.6,1.1,2,3.2,0.9,4.8c-0.1,0.1-0.1,0.2-0.2,0.3L203.2,70C202.6,70.9,201.6,71.4,200.5,71.4z"/>
<path class="st7" d="M219.8,98.5c-0.4,0-0.7-0.1-1-0.3c-0.8-0.6-0.9-1.6-0.3-2.4l14.2-18.7c0.6-0.7,1.7-0.8,2.4-0.2
	c0.7,0.6,0.8,1.5,0.3,2.3l-14.2,18.7C220.8,98.3,220.3,98.5,219.8,98.5z"/>
<path class="st8" d="M19.1,108.6c-4.8-3.6-11.7-2.7-15.4,2.1L0,115.6v36.3l21.2-27.9C24.8,119.1,23.9,112.2,19.1,108.6z"/>
<path class="st9" d="M490.2,802l36-47.5c6.9-9.1,5.1-22.1-4-29c-9.1-6.9-22.1-5.1-29,4l0,0l-55,72.5L490.2,802z"/>
<circle class="st10" cx="456.3" cy="614.3" r="13"/>
<circle class="st10" cx="33.9" cy="238.6" r="13"/>
</svg>
